<?xml version="1.0" standalone="no"?>
<!DOCTYPE svg PUBLIC "-//W3C//DTD SVG 20010904//EN"
 "http://www.w3.org/TR/2001/REC-SVG-20010904/DTD/svg10.dtd">
<svg version="1.0" xmlns="http://www.w3.org/2000/svg"
 width="896.000000pt" height="896.000000pt" viewBox="0 0 896.000000 896.000000"
 preserveAspectRatio="xMidYMid meet">
<metadata>
Created by potrace 1.14, written by Peter Selinger 2001-2017
</metadata>
<g transform="translate(0.000000,896.000000) scale(0.100000,-0.100000)"
fill="#000000" stroke="none">
<path d="M4259 8736 c-2 -2 -49 -6 -104 -10 -55 -4 -113 -8 -130 -11 -16 -2
-55 -6 -85 -10 -52 -5 -136 -18 -205 -30 -606 -111 -1161 -338 -1656 -677
-117 -81 -148 -104 -259 -193 -597 -478 -1043 -1090 -1325 -1819 -108 -279
-210 -693 -241 -976 -3 -30 -7 -66 -10 -80 -11 -66 -18 -256 -18 -455 0 -274
11 -430 49 -665 8 -47 16 -98 19 -115 14 -91 78 -347 121 -485 35 -112 132
-374 154 -418 5 -9 39 -80 76 -157 87 -183 158 -309 270 -480 75 -115 242
-345 264 -365 3 -3 31 -34 61 -70 518 -614 1254 -1094 2024 -1319 121 -36 179
-51 311 -81 53 -12 105 -22 130 -25 11 -2 47 -8 80 -13 33 -6 76 -13 95 -16
32 -5 55 -8 175 -22 200 -23 693 -23 850 0 17 3 55 7 85 11 180 19 439 70 632
124 165 47 380 121 493 170 22 10 65 29 95 42 140 60 336 164 515 272 128 78
383 264 509 371 162 139 357 335 502 506 68 80 227 288 271 356 233 355 387
666 508 1028 50 151 139 485 149 560 2 17 9 63 16 101 13 81 18 111 26 180 3
28 7 66 10 85 24 196 24 678 -1 875 -19 152 -24 189 -36 255 -5 30 -11 69 -14
85 -3 17 -12 62 -20 100 -8 39 -17 79 -19 90 -3 11 -16 63 -30 115 -15 52 -28
102 -30 111 -10 39 -47 152 -84 254 -155 429 -385 839 -681 1210 -31 39 -58
72 -61 75 -3 3 -39 43 -80 90 -118 134 -317 328 -430 420 -30 25 -61 51 -68
58 -8 7 -30 25 -50 40 -21 15 -39 29 -42 32 -15 17 -259 186 -350 242 -441
273 -945 470 -1440 562 -47 9 -94 18 -105 20 -11 2 -45 7 -76 10 -31 4 -65 8
-75 10 -11 2 -50 7 -89 11 -38 4 -83 9 -100 11 -37 5 -571 14 -576 10z"/>
</g>
</svg>
